# File created by Blade
# Date/Time:  Thu Sep 25 19:32:06 2014
# Frame Rate: 120.000 fps
#------------------------------------------------------
:FULLY-SPECIFIED
:DEGREES
3610
root -0.302338 33.164498 -2.221547 9.470200 9.895146 -1.449780
Spine -5.855462 5.753570 2.265873
Head -21.039509 -11.574383 5.380508
LeftShoulder -15.567436 15.062278 28.907259
LeftArm 16.790057 -23.013493 -25.702750
LeftForeArm 12.918168 0.000000 11.892868
LeftHand -29.032777 -0.000000 -7.399096
LeftHandThumb1 -26.253704 0.000000 33.147579
RightShoulder -21.867902 15.048785 -45.226916
RightArm -9.773574 9.732032 23.672123
RightForeArm -31.023231 -0.000000 15.704379
RightHand -13.965610 -0.000000 4.190528
RightHandThumb1 -24.326973 -0.000000 -32.862282
LeftUpLeg -5.698951 2.173490 1.567809
LeftLeg -3.252216 -0.000000 0.000000
LeftFoot -6.729791 0.293220 -22.801815
LeftToeBase 8.635278 -0.000000 -0.000000
RightUpLeg -4.751202 -7.969066 0.228912
RightLeg 2.506700 -0.000000 -0.000000
RightFoot -7.399153 -4.526264 4.081339
RightToeBase -0.394368 -0.000000 0.000000
3611
root -0.310641 33.163446 -2.227081 9.455334 9.703094 -1.435453
Spine -5.805513 5.752032 2.158144
Head -20.981083 -11.379208 5.380192
LeftShoulder -15.749960 15.094570 28.888442
LeftArm 16.774997 -23.097882 -25.645990
LeftForeArm 12.919676 -0.000000 11.730570
LeftHand -29.082502 -0.000000 -7.586130
LeftHandThumb1 -26.253704 0.000000 33.147579
RightShoulder -21.880918 15.196001 -45.341043
RightArm -9.535550 9.492659 23.659912
RightForeArm -31.012442 -0.000000 15.564521
RightHand -14.021077 0.000000 4.554061
RightHandThumb1 -24.326973 -0.000000 -32.862282
LeftUpLeg -5.706622 2.342822 1.527196
LeftLeg -3.182391 -0.000000 0.000000
LeftFoot -6.759960 0.322058 -22.675062
LeftToeBase 8.756835 -0.000000 -0.000000
RightUpLeg -4.716983 -7.866183 0.216596
RightLeg 2.406065 -0.000000 -0.000000
RightFoot -7.358397 -4.525675 3.955262
RightToeBase -0.306766 -0.000000 0.000000
3612
root -0.320003 33.161869 -2.231633 9.430989 9.548231 -1.423125
Spine -5.750798 5.721436 2.062989
Head -20.899964 -11.200475 5.374071
LeftShoulder -15.838640 15.041749 28.903002
LeftArm 16.611925 -23.181578 -25.610971
LeftForeArm 12.900015 -0.000000 11.607254
LeftHand -29.055122 -0.000000 -7.783225
LeftHandThumb1 -26.253704 0.000000 33.147579
RightShoulder -21.897252 15.246281 -45.408640
RightArm -9.266519 9.471031 23.669675
RightForeArm -31.098229 -0.000000 15.382712
RightHand -13.781279 -0.000000 4.818154
RightHandThumb1 -24.326973 -0.000000 -32.862282
LeftUpLeg -5.714257 2.451624 1.499599
LeftLeg -3.103076 -0.000000 0.000000
LeftFoot -6.798308 0.387598 -22.482412
LeftToeBase 8.775676 -0.000000 -0.000000
RightUpLeg -4.668832 -7.850871 0.216350
RightLeg 2.303688 -0.000000 -0.000000
RightFoot -7.314394 -4.488870 3.800079
RightToeBase -0.290953 -0.000000 0.000000
3613
root -0.327346 33.158735 -2.235989 9.410756 9.425026 -1.382096
Spine -5.700982 5.651284 1.946199
Head -20.810824 -11.026128 5.332467
LeftShoulder -15.943908 15.014544 28.892088
LeftArm 16.513508 -23.390087 -25.628781
LeftForeArm 12.940550 -0.000000 11.455653
LeftHand -28.932783 0.000000 -7.862923
LeftHandThumb1 -26.253704 0.000000 33.147579
RightShoulder -21.892127 15.237992 -45.477728
RightArm -8.993965 9.433935 23.763750
RightForeArm -31.091536 0.000000 15.219756
RightHand -13.707131 -0.000000 5.072781
RightHandThumb1 -24.326973 -0.000000 -32.862282
LeftUpLeg -5.721712 2.450796 1.455090
LeftLeg -3.021385 -0.000000 0.000000
LeftFoot -6.868276 0.506942 -22.357424
LeftToeBase 8.919729 -0.000000 -0.000000
RightUpLeg -4.559459 -7.766032 0.175111
RightLeg 2.090081 -0.000000 -0.000000
RightFoot -7.251190 -4.499084 3.738156
RightToeBase -0.243683 -0.000000 0.000000
3614
root -0.336559 33.156303 -2.240404 9.385323 9.308494 -1.353590
Spine -5.654209 5.584745 1.848502
Head -20.693451 -10.842959 5.264268
LeftShoulder -16.025940 14.974522 28.873978
LeftArm 16.379646 -23.504838 -25.638964
LeftForeArm 12.991916 -0.000000 11.399082
LeftHand -28.967511 -0.000000 -7.935482
LeftHandThumb1 -26.253704 0.000000 33.147579
RightShoulder -21.850599 15.281738 -45.497706
RightArm -8.865487 9.355770 23.801971
RightForeArm -31.074670 -0.000000 15.204668
RightHand -13.614490 -0.000000 5.217209
RightHandThumb1 -24.326973 -0.000000 -32.862282
LeftUpLeg -5.732062 2.403266 1.428418
LeftLeg -2.933922 -0.000000 0.000000
LeftFoot -6.950800 0.683569 -22.145931
LeftToeBase 8.939917 -0.000000 -0.000000
RightUpLeg -4.476849 -7.777553 0.157029
RightLeg 1.935784 -0.000000 -0.000000
RightFoot -7.202010 -4.439578 3.630285
RightToeBase -0.202257 -0.000000 0.000000
3615
root -0.346179 33.153640 -2.243416 9.357018 9.193115 -1.344499
Spine -5.613846 5.554829 1.751561
Head -20.586547 -10.692695 5.269158
LeftShoulder -16.102531 14.921064 28.865136
LeftArm 16.313688 -23.696258 -25.709457
LeftForeArm 13.140040 -0.000000 11.346938
LeftHand -29.056203 -0.000000 -7.898873
LeftHandThumb1 -26.253704 0.000000 33.147579
RightShoulder -21.817608 15.317831 -45.487203
RightArm -8.685480 9.229246 23.828671
RightForeArm -31.243819 -0.000000 15.047958
RightHand -13.634294 -0.000000 5.659968
RightHandThumb1 -24.326973 -0.000000 -32.862282
LeftUpLeg -5.743152 2.301414 1.431552
LeftLeg -2.834055 -0.000000 0.000000
LeftFoot -7.080570 0.897642 -22.022178
LeftToeBase 9.019458 -0.000000 -0.000000
RightUpLeg -4.430187 -7.857181 0.163533
RightLeg 1.860975 -0.000000 -0.000000
RightFoot -7.158051 -4.310710 3.495646
RightToeBase -0.173088 -0.000000 0.000000
3616
root -0.356342 33.150848 -2.244612 9.334105 9.069876 -1.315424
Spine -5.591334 5.536508 1.644731
Head -20.441225 -10.587899 5.196566
LeftShoulder -16.128042 14.887566 28.825351
LeftArm 16.228714 -23.941062 -25.784540
LeftForeArm 13.099242 -0.000000 11.318406
LeftHand -26.983187 0.000000 -8.508865
LeftHandThumb1 -26.253704 0.000000 33.147579
RightShoulder -21.799998 15.360537 -45.533890
RightArm -8.566325 9.189574 23.936798
RightForeArm -31.446229 -0.000000 14.968840
RightHand -13.665293 -0.000000 5.871055
RightHandThumb1 -24.326973 -0.000000 -32.862282
LeftUpLeg -5.741815 2.194650 1.418623
LeftLeg -2.762159 -0.000000 0.000000
LeftFoot -7.184655 1.119157 -21.899899
LeftToeBase 9.111324 -0.000000 -0.000000
RightUpLeg -4.365837 -7.921553 0.150209
RightLeg 1.746071 -0.000000 -0.000000
RightFoot -7.161277 -4.204310 3.449081
RightToeBase -0.011904 -0.000000 0.000000
3617
root -0.366842 33.149066 -2.245068 9.301924 8.962656 -1.307631
Spine -5.568253 5.515187 1.555796
Head -20.286318 -10.474336 5.156273
LeftShoulder -16.233157 14.945900 28.818219
LeftArm 16.271290 -24.181393 -25.992839
LeftForeArm 13.209662 -0.000000 11.368709
LeftHand -27.125997 -0.000000 -8.430135
LeftHandThumb1 -26.253704 0.000000 33.147579
RightShoulder -21.788598 15.389453 -45.521727
RightArm -8.405901 9.095765 24.027568
RightForeArm -31.402494 -0.000000 14.767637
RightHand -13.469056 -0.000000 5.988384
RightHandThumb1 -24.326973 -0.000000 -32.862282
LeftUpLeg -5.735046 2.052734 1.431396
LeftLeg -2.693377 -0.000000 0.000000
LeftFoot -7.316109 1.377615 -21.742455
LeftToeBase 9.259010 -0.000000 -0.000000
RightUpLeg -4.282285 -8.013743 0.147769
RightLeg 1.610886 -0.000000 -0.000000
RightFoot -7.097716 -3.998647 3.454164
RightToeBase -0.037562 -0.000000 0.000000
3618
root -0.376702 33.147774 -2.244533 9.286238 8.857631 -1.301150
Spine -5.585085 5.520887 1.475697
Head -20.085512 -10.430311 5.074031
LeftShoulder -16.285498 14.989601 28.775203
LeftArm 16.307447 -24.367317 -26.150606
LeftForeArm 13.149979 -0.000000 11.396700
LeftHand -27.243732 -0.000000 -8.322566
LeftHandThumb1 -26.253704 0.000000 33.147579
RightShoulder -21.780373 15.396343 -45.480966
RightArm -8.249741 8.957907 24.104171
RightForeArm -31.319179 -0.000000 14.684948
RightHand -13.753593 0.000000 6.389505
RightHandThumb1 -24.326973 -0.000000 -32.862282
LeftUpLeg -5.739465 1.932435 1.440532
LeftLeg -2.629957 -0.000000 0.000000
LeftFoot -7.414884 1.613521 -21.623100
LeftToeBase 9.325307 -0.000000 -0.000000
RightUpLeg -4.222384 -8.053676 0.148720
RightLeg 1.501254 -0.000000 -0.000000
RightFoot -7.063533 -3.878751 3.421408
RightToeBase 0.032310 -0.000000 -0.000000
